<svg width="24" height="24" viewBox="0 0 24 24" fill="none" xmlns="http://www.w3.org/2000/svg">
<mask id="mask0_37_48" style="mask-type:alpha" maskUnits="userSpaceOnUse" x="0" y="0" width="24" height="24">
<rect width="24" height="24" fill="#D9D9D9"/>
</mask>
<g mask="url(#mask0_37_48)">
<path d="M5.80773 21.1153C5.3026 21.1153 4.87503 20.9403 4.52503 20.5903C4.17503 20.2403 4.00003 19.8128 4.00003 19.3076V5.92308C4.00003 5.41794 4.17503 4.99037 4.52503 4.64037C4.87503 4.29037 5.3026 4.11537 5.80773 4.11537H7.19236V2H8.73078V4.11537H16.3077V2H17.8077V4.11537H19.1923C19.6974 4.11537 20.125 4.29037 20.475 4.64037C20.825 4.99037 21 5.41794 21 5.92308V19.3076C21 19.8128 20.825 20.2403 20.475 20.5903C20.125 20.9403 19.6974 21.1153 19.1923 21.1153H5.80773ZM5.80773 19.6154H19.1923C19.2692 19.6154 19.3397 19.5833 19.4039 19.5192C19.468 19.4551 19.5 19.3846 19.5 19.3076V9.92308H5.50001V19.3076C5.50001 19.3846 5.53206 19.4551 5.59616 19.5192C5.66027 19.5833 5.7308 19.6154 5.80773 19.6154ZM5.50001 8.4231H19.5V5.92308C19.5 5.84614 19.468 5.77562 19.4039 5.7115C19.3397 5.6474 19.2692 5.61535 19.1923 5.61535H5.80773C5.7308 5.61535 5.66027 5.6474 5.59616 5.7115C5.53206 5.77562 5.50001 5.84614 5.50001 5.92308V8.4231ZM12.5 13.6923C12.2551 13.6923 12.0465 13.6061 11.8741 13.4336C11.7016 13.2612 11.6154 13.0525 11.6154 12.8077C11.6154 12.5628 11.7016 12.3542 11.8741 12.1817C12.0465 12.0093 12.2551 11.9231 12.5 11.9231C12.7449 11.9231 12.9535 12.0093 13.126 12.1817C13.2984 12.3542 13.3846 12.5628 13.3846 12.8077C13.3846 13.0525 13.2984 13.2612 13.126 13.4336C12.9535 13.6061 12.7449 13.6923 12.5 13.6923ZM8.50001 13.6923C8.25514 13.6923 8.04649 13.6061 7.87406 13.4336C7.70162 13.2612 7.61541 13.0525 7.61541 12.8077C7.61541 12.5628 7.70162 12.3542 7.87406 12.1817C8.04649 12.0093 8.25514 11.9231 8.50001 11.9231C8.74487 11.9231 8.95352 12.0093 9.12596 12.1817C9.29839 12.3542 9.38461 12.5628 9.38461 12.8077C9.38461 13.0525 9.29839 13.2612 9.12596 13.4336C8.95352 13.6061 8.74487 13.6923 8.50001 13.6923ZM16.5 13.6923C16.2551 13.6923 16.0465 13.6061 15.8741 13.4336C15.7016 13.2612 15.6154 13.0525 15.6154 12.8077C15.6154 12.5628 15.7016 12.3542 15.8741 12.1817C16.0465 12.0093 16.2551 11.9231 16.5 11.9231C16.7449 11.9231 16.9535 12.0093 17.126 12.1817C17.2984 12.3542 17.3846 12.5628 17.3846 12.8077C17.3846 13.0525 17.2984 13.2612 17.126 13.4336C16.9535 13.6061 16.7449 13.6923 16.5 13.6923ZM12.5 17.6154C12.2551 17.6154 12.0465 17.5291 11.8741 17.3567C11.7016 17.1843 11.6154 16.9756 11.6154 16.7308C11.6154 16.4859 11.7016 16.2772 11.8741 16.1048C12.0465 15.9324 12.2551 15.8461 12.5 15.8461C12.7449 15.8461 12.9535 15.9324 13.126 16.1048C13.2984 16.2772 13.3846 16.4859 13.3846 16.7308C13.3846 16.9756 13.2984 17.1843 13.126 17.3567C12.9535 17.5291 12.7449 17.6154 12.5 17.6154ZM8.50001 17.6154C8.25514 17.6154 8.04649 17.5291 7.87406 17.3567C7.70162 17.1843 7.61541 16.9756 7.61541 16.7308C7.61541 16.4859 7.70162 16.2772 7.87406 16.1048C8.04649 15.9324 8.25514 15.8461 8.50001 15.8461C8.74487 15.8461 8.95352 15.9324 9.12596 16.1048C9.29839 16.2772 9.38461 16.4859 9.38461 16.7308C9.38461 16.9756 9.29839 17.1843 9.12596 17.3567C8.95352 17.5291 8.74487 17.6154 8.50001 17.6154ZM16.5 17.6154C16.2551 17.6154 16.0465 17.5291 15.8741 17.3567C15.7016 17.1843 15.6154 16.9756 15.6154 16.7308C15.6154 16.4859 15.7016 16.2772 15.8741 16.1048C16.0465 15.9324 16.2551 15.8461 16.5 15.8461C16.7449 15.8461 16.9535 15.9324 17.126 16.1048C17.2984 16.2772 17.3846 16.4859 17.3846 16.7308C17.3846 16.9756 17.2984 17.1843 17.126 17.3567C16.9535 17.5291 16.7449 17.6154 16.5 17.6154Z" fill="#333333"/>
</g>
</svg>
