<svg width="24" height="24" viewBox="0 0 24 24" fill="none" xmlns="http://www.w3.org/2000/svg">
<path d="M23.9314 12.1836L21.36 6.12469C21.2944 5.96824 21.1846 5.83475 21.0444 5.74086C20.9042 5.64697 20.7397 5.59683 20.5714 5.59669H18V3.86556C18 3.636 17.9097 3.41584 17.7489 3.25352C17.5882 3.09119 17.3702 3 17.1429 3H0.857143C0.629814 3 0.411797 3.09119 0.251051 3.25352C0.0903058 3.41584 0 3.636 0 3.86556V18.5802C0 18.8097 0.0903058 19.0299 0.251051 19.1922C0.411797 19.3545 0.629814 19.4457 0.857143 19.4457H2.69143C2.88881 20.1792 3.31972 20.8267 3.91765 21.2883C4.51559 21.7499 5.24734 22 6 22C6.75266 22 7.48441 21.7499 8.08235 21.2883C8.68028 20.8267 9.11119 20.1792 9.30857 19.4457H14.6914C14.8888 20.1792 15.3197 20.8267 15.9177 21.2883C16.5156 21.7499 17.2473 22 18 22C18.7527 22 19.4844 21.7499 20.0823 21.2883C20.6803 20.8267 21.1112 20.1792 21.3086 19.4457H23.1429C23.3702 19.4457 23.5882 19.3545 23.7489 19.1922C23.9097 19.0299 24 18.8097 24 18.5802V12.5212C23.9998 12.4052 23.9765 12.2904 23.9314 12.1836ZM18 7.32782H20.0057L21.84 11.6556H18V7.32782ZM6 20.3113C5.66095 20.3113 5.32951 20.2098 5.04759 20.0195C4.76568 19.8293 4.54596 19.559 4.41621 19.2426C4.28646 18.9263 4.25251 18.5782 4.31865 18.2424C4.3848 17.9066 4.54807 17.5982 4.78782 17.3561C5.02756 17.114 5.33302 16.9491 5.66556 16.8823C5.9981 16.8155 6.34278 16.8498 6.65603 16.9808C6.96927 17.1118 7.23701 17.3337 7.42538 17.6184C7.61374 17.9031 7.71429 18.2378 7.71429 18.5802C7.71429 19.0393 7.53367 19.4796 7.21218 19.8042C6.89069 20.1289 6.45466 20.3113 6 20.3113ZM14.6914 17.7146H9.30857C9.11119 16.9811 8.68028 16.3337 8.08235 15.872C7.48441 15.4104 6.75266 15.1603 6 15.1603C5.24734 15.1603 4.51559 15.4104 3.91765 15.872C3.31972 16.3337 2.88881 16.9811 2.69143 17.7146H1.71429V4.73113H16.2857V15.6026C15.8954 15.8314 15.5537 16.1357 15.2801 16.4981C15.0065 16.8605 14.8065 17.2739 14.6914 17.7146ZM18 20.3113C17.6609 20.3113 17.3295 20.2098 17.0476 20.0195C16.7657 19.8293 16.546 19.559 16.4162 19.2426C16.2865 18.9263 16.2525 18.5782 16.3187 18.2424C16.3848 17.9066 16.5481 17.5982 16.7878 17.3561C17.0276 17.114 17.333 16.9491 17.6656 16.8823C17.9981 16.8155 18.3428 16.8498 18.656 16.9808C18.9693 17.1118 19.237 17.3337 19.4254 17.6184C19.6137 17.9031 19.7143 18.2378 19.7143 18.5802C19.7143 19.0393 19.5337 19.4796 19.2122 19.8042C18.8907 20.1289 18.4547 20.3113 18 20.3113ZM22.2857 17.7146H21.3086C21.119 16.9733 20.6915 16.3163 20.0928 15.8464C19.4942 15.3766 18.7582 15.1204 18 15.1179V13.3868H22.2857V17.7146Z" fill="#333333"/>
</svg>
