<svg width="24" height="24" viewBox="0 0 24 24" fill="none" xmlns="http://www.w3.org/2000/svg">
<path d="M12 11.329C14.5942 11.329 16.6971 9.22599 16.6971 6.63182C16.6971 4.03765 14.5942 1.93466 12 1.93466C9.40582 1.93466 7.30283 4.03765 7.30283 6.63182C7.30283 9.22599 9.40582 11.329 12 11.329Z" stroke="#333333" stroke-width="1.5" stroke-linecap="round"/>
<path d="M2.40435 18.6404C3.26192 15.4933 6.51772 14.0131 9.77889 14.0131H14.2211C17.4822 14.0131 20.738 15.4933 21.5969 18.6404C21.784 19.3236 21.9164 20.0205 21.9928 20.7246C22.0734 21.4628 21.4641 22.0653 20.7233 22.0653H3.27668C2.53587 22.0653 1.92793 21.4614 2.00711 20.726C2.08346 20.0214 2.21719 19.324 2.40435 18.6404Z" stroke="#333333" stroke-width="1.5" stroke-linecap="round"/>
</svg>
